<?xml version="1.0" encoding="UTF-8" standalone="no"?>
<!DOCTYPE svg PUBLIC "-//W3C//DTD SVG 1.1//EN" "http://www.w3.org/Graphics/SVG/1.1/DTD/svg11.dtd">
<svg version="1.1" xmlns="http://www.w3.org/2000/svg" xmlns:xlink="http://www.w3.org/1999/xlink" preserveAspectRatio="xMidYMid meet" viewBox="0 0 640 640" width="640" height="640"><defs><path d="M542.72 261.12C542.72 138.24 442.88 38.4 320 38.4C197.12 38.4 97.28 138.24 97.28 261.12C97.28 384 197.12 483.84 320 483.84C442.88 483.84 542.72 384 542.72 261.12ZM512 261.12C512 367.1 425.98 453.12 320 453.12C214.02 453.12 128 367.1 128 261.12C128 155.14 214.02 69.12 320 69.12C425.98 69.12 512 155.14 512 261.12Z" id="a30QxXg2zg"></path><path d="M416.77 301.57L330.24 254.46L330.24 117.76L299.52 117.76L299.52 263.68L307.71 276.99L402.43 328.19L416.77 301.57Z" id="b7TsQuwHle"></path></defs><g><g><g><use xlink:href="#a30QxXg2zg" opacity="1" fill="#ffffff" fill-opacity="1"></use><g><use xlink:href="#a30QxXg2zg" opacity="1" fill-opacity="0" stroke="#000000" stroke-width="1" stroke-opacity="0"></use></g></g><g><use xlink:href="#b7TsQuwHle" opacity="1" fill="#ffffff" fill-opacity="1"></use><g><use xlink:href="#b7TsQuwHle" opacity="1" fill-opacity="0" stroke="#000000" stroke-width="1" stroke-opacity="0"></use></g></g></g></g></svg>